<svg width="100" height="100" xmlns="http://www.w3.org/2000/svg" xml:space="preserve" enable-background="new 0 0 400 400" version="1.1">

	<g>
	 <title>Layer 1</title>
	 <path stroke="null" id="svg_2" d="m76.65156,14.56562l0,0l0,0l0,0l0,0c-1.66113,-1.25005 -3.38137,-2.36441 -5.14796,-3.34712c-1.27893,-0.71134 -2.88498,-0.37884 -3.76425,0.7906l-11.07779,14.71844l-0.78993,1.04988c-1.19967,1.59396 -3.11538,2.46181 -5.10833,2.37045c-0.72679,-0.03291 -1.45357,-0.0262 -2.17767,0.01948c-5.56778,0.35265 -10.9542,3.03947 -14.57201,7.84621c-2.90849,3.86433 -4.18406,8.44739 -3.94897,12.927c0.04232,0.80672 0.50848,1.54358 1.24333,1.87809c1.52477,0.6932 2.69825,2.10714 2.99178,3.91605c0.41511,2.55853 -1.15668,5.07206 -3.63931,5.81631c-2.92663,0.87725 -5.93252,-0.91554 -6.59213,-3.84485c-0.35735,-1.58657 0.05306,-3.16441 0.98271,-4.35266c0.51587,-0.65894 0.77515,-1.47977 0.70126,-2.31336c-0.50915,-5.74444 1.02099,-11.68904 4.7624,-16.65968c4.71941,-6.26971 11.90063,-9.58794 19.18529,-9.63026c1.40387,-0.00806 2.72176,-0.6791 3.56609,-1.80085l10.20188,-13.5537c0.79866,-1.06063 0.28279,-2.58473 -0.99144,-2.95887c-17.08151,-5.01093 -36.20836,0.62737 -47.66432,15.54733c-14.84405,19.3324 -11.23699,47.20689 8.05175,62.10737c1.80488,1.39446 3.6823,2.6257 5.61547,3.69976c1.27154,0.70664 2.87088,0.36071 3.74611,-0.80135l11.07779,-14.71777l0.78993,-1.04988c1.19967,-1.59396 3.11538,-2.46181 5.10833,-2.37045c0.72679,0.03291 1.45357,0.0262 2.17767,-0.01948c5.56778,-0.35265 10.9542,-3.03947 14.57201,-7.84621c2.90849,-3.86433 4.18406,-8.44739 3.94897,-12.927c-0.04232,-0.80672 -0.50848,-1.54358 -1.24333,-1.87809c-1.52477,-0.6932 -2.69825,-2.10714 -2.99178,-3.91605c-0.41511,-2.55853 1.15668,-5.07206 3.63931,-5.81564c2.92663,-0.87725 5.93252,0.91554 6.59213,3.84485c0.35735,1.58657 -0.05306,3.16441 -0.98271,4.35266c-0.51587,0.65894 -0.77515,1.47977 -0.70126,2.31336c0.50915,5.74444 -1.02099,11.68904 -4.7624,16.65968c-4.71941,6.26971 -11.90063,9.58794 -19.18529,9.63026c-1.40387,0.00806 -2.72176,0.6791 -3.56609,1.80085l-10.20121,13.55303c-0.79261,1.05324 -0.29488,2.5807 0.96994,2.95282c17.21786,5.06064 36.51936,-0.70193 47.94913,-15.88721c14.72785,-19.57018 10.80441,-47.37482 -8.7651,-62.10401z" fill="#00A0FF"/>
	</g>
   </svg>
